<svg width="129" height="47" viewBox="0 0 129 47" xmlns="http://www.w3.org/2000/svg">
<path fill-rule="evenodd" clip-rule="evenodd" d="M0.068222 1.06771L128.067 0.580033L128.24 45.5572L44.9612 45.8957L0.240989 46.0674L0.068222 1.06771ZM41.8533 3.87227L3.02614 4.02134L3.17614 43.0911L42.0033 42.942L41.8533 3.87227ZM125.143 3.54499L44.7998 3.85346L44.9498 42.9232L125.293 42.6148L125.143 3.54499ZM84.5612 24.5683L84.5888 31.7555C84.5929 32.8402 84.8459 33.6274 85.3401 34.1171C85.8418 34.6069 86.4544 34.8522 87.1892 34.8494C87.9202 34.8466 88.5347 34.5965 89.0289 34.103C89.523 33.6094 89.7662 32.8203 89.762 31.7357L89.7344 24.5485L92.1812 24.5391L92.209 31.7788C92.2155 33.494 91.732 34.817 90.7546 35.7515C89.7773 36.6898 88.593 37.1635 87.1981 37.1688C85.7882 37.1742 84.5966 36.7097 83.6196 35.7789C82.6425 34.8519 82.1488 33.5326 82.1422 31.8175L82.1144 24.5777L84.5612 24.5683ZM99.82 24.3822C100.674 24.3789 101.518 24.5633 102.358 24.9354C103.199 25.3075 103.951 25.8075 104.617 26.4355L103.026 27.9203C102.574 27.5543 102.047 27.2598 101.438 27.0332C100.825 26.8103 100.291 26.6998 99.8289 26.7016L99.6909 26.7021C99.1688 26.7041 98.6843 26.8148 98.2301 27.038C97.7759 27.2612 97.5498 27.6148 97.5516 28.1027C97.5531 28.4818 97.7332 28.7626 98.092 28.9376C98.4544 29.1164 98.9659 29.2458 99.6264 29.3258L100.623 29.4308C102.007 29.5906 103.086 29.9656 103.861 30.5518C104.639 31.1343 105.03 32.0336 105.035 33.2458C105.039 34.4131 104.588 35.3456 103.688 36.0434C102.784 36.7412 101.629 37.1022 100.227 37.1188L100.119 37.1192C98.9514 37.1237 97.9136 36.8912 97.0055 36.4256C96.0973 35.9599 95.3789 35.3584 94.8464 34.6211L96.4334 33.14C96.7559 33.5891 97.2348 33.9776 97.8739 34.3092C98.5129 34.6408 99.2595 34.8031 100.11 34.7998L100.218 34.7994C100.938 34.7854 101.512 34.6405 101.943 34.3649C102.375 34.0893 102.59 33.7206 102.588 33.2552C102.586 32.7561 102.387 32.3965 101.998 32.1804C101.606 31.9604 101.038 31.8087 100.292 31.714L99.3181 31.6089C96.5158 31.2856 95.1127 30.1538 95.1052 28.2022C95.1009 27.0575 95.53 26.1438 96.3964 25.4612C97.2628 24.771 98.3543 24.4141 99.682 24.3827L99.82 24.3822ZM72.8991 24.4874C74.6484 24.4807 76.1427 25.098 77.3783 26.3318C78.6214 27.573 79.2463 29.0719 79.253 30.8321C79.2598 32.5885 78.6464 34.0959 77.4129 35.3429C76.1868 36.5862 74.6973 37.2149 72.948 37.2217C71.1988 37.2284 69.7082 36.6111 68.4726 35.3773C67.237 34.1397 66.6195 32.6371 66.6128 30.8806C66.606 29.1204 67.2119 27.6168 68.438 26.3661C69.6641 25.1228 71.1499 24.4941 72.8991 24.4874ZM56.4307 24.6763L56.4501 29.7243L61.2541 29.7058L61.2347 24.6579L63.6814 24.6485L63.7294 37.1351L61.2826 37.1445L61.263 32.0252L56.459 32.0437L56.4787 37.1629L54.0319 37.1723L53.984 24.6857L56.4307 24.6763ZM116.045 24.446L116.054 26.7654L110.239 26.7877L110.25 29.5162L115.621 29.4956L115.63 31.815L110.259 31.8356L110.269 34.6354L116.084 34.6131L116.093 36.9325L107.832 36.9642L107.784 24.4777L116.045 24.446ZM36.3077 9.79315L36.3191 12.7468L11.8665 12.8407L11.9485 34.1884L33.4657 34.1057L33.4304 24.9106L22.5245 24.9525L22.5131 21.9988L36.3544 21.9457L36.4124 37.0482L9.0245 37.1533L8.91986 9.8983L36.3077 9.79315ZM72.908 26.8068C71.8078 26.811 70.8917 27.1936 70.1561 27.9583C69.4168 28.7231 69.055 29.6928 69.0595 30.8712C69.0641 32.0572 69.4333 33.0316 70.1785 33.7831C70.9199 34.5347 71.8388 34.9102 72.9391 34.906C74.0506 34.9017 74.9704 34.5191 75.7097 33.7619C76.4416 33.0047 76.8109 32.0275 76.8063 30.8415C76.8018 29.663 76.4251 28.6961 75.6762 27.9371C74.931 27.1781 74.0083 26.8026 72.908 26.8068ZM59.4041 9.40948C61.2466 9.4024 62.8083 10.087 64.0929 11.4595L62.5022 12.9443C61.6823 12.1255 60.655 11.7204 59.413 11.7251C58.3127 11.7294 57.3966 12.112 56.661 12.8692C55.9217 13.6264 55.5599 14.6036 55.5645 15.7896C55.569 16.968 55.9382 17.9387 56.6834 18.694C57.4248 19.453 58.3438 19.8323 59.4441 19.8281C60.2833 19.8249 61.0246 19.5893 61.6756 19.1214L61.6673 16.9634L59.3958 16.9721L59.3887 15.1181L64.1069 15.1L64.1259 20.0541C62.8519 21.4401 61.2955 22.1367 59.453 22.1437C57.7037 22.1505 56.2131 21.5332 54.9775 20.2956C53.7419 19.0618 53.1245 17.5592 53.1177 15.799C53.111 14.0425 53.7169 12.5352 54.9429 11.2882C56.169 10.0412 57.6548 9.41619 59.4041 9.40948ZM99.7645 9.23463C100.615 9.23137 101.462 9.41577 102.299 9.78787C103.144 10.1599 103.895 10.6562 104.558 11.288L102.967 12.7728C102.518 12.4067 101.987 12.1085 101.378 11.8857C100.77 11.6628 100.232 11.5523 99.7734 11.554L99.6317 11.5546C99.1095 11.5566 98.625 11.6673 98.1709 11.8905C97.7167 12.1099 97.4905 12.4673 97.4924 12.9552C97.4938 13.3343 97.6739 13.6151 98.0364 13.7901C98.3989 13.9688 98.9066 14.0983 99.5709 14.1783L100.563 14.2796C101.948 14.4394 103.027 14.8143 103.801 15.4006C104.58 15.9831 104.971 16.8861 104.976 18.0983C104.98 19.2618 104.532 20.1981 103.629 20.8921C102.729 21.5937 101.574 21.9509 100.168 21.9713L100.06 21.9717C98.8921 21.9762 97.8543 21.7437 96.9462 21.2781C96.0418 20.8086 95.3234 20.2109 94.7872 19.4736L96.3778 17.9887C96.6966 18.4416 97.1792 18.8301 97.8183 19.1579C98.4536 19.4895 99.204 19.6555 100.051 19.6523L100.159 19.6519C100.882 19.6378 101.452 19.4893 101.884 19.2174C102.316 18.9418 102.531 18.5694 102.529 18.1077C102.527 17.6086 102.328 17.249 101.939 17.0291C101.547 16.8129 100.983 16.6574 100.236 16.5627L99.2589 16.4614C96.4565 16.1381 95.0535 15.0026 95.046 13.0509C95.0416 11.91 95.4707 10.9963 96.3372 10.3099C97.2036 9.62353 98.2988 9.26653 99.6228 9.23518L99.7645 9.23463ZM70.2631 9.474L70.2906 16.6612C70.2948 17.7458 70.5477 18.533 71.042 19.0228C71.5436 19.5125 72.1563 19.7579 72.891 19.7551C73.6221 19.7523 74.2365 19.5022 74.7307 19.0086C75.2249 18.5151 75.468 17.726 75.4639 16.6413L75.4363 9.45414L77.883 9.44475L77.9108 16.6845C77.9174 18.3996 77.4339 19.7226 76.4565 20.6571C75.4792 21.5954 74.2949 22.0691 72.8999 22.0745C71.4901 22.0799 70.2985 21.6153 69.3214 20.6845C68.3444 19.7575 67.8507 18.4383 67.8441 16.7231L67.8163 9.4834L70.2631 9.474ZM91.2211 9.39354L91.23 11.713L85.4153 11.7353L85.4258 14.4638L90.7967 14.4432L90.8056 16.7626L85.4347 16.7832L85.4454 19.583L91.2602 19.5607L91.2691 21.8801L83.0076 21.9118L82.9596 9.42526L91.2211 9.39354ZM116.484 9.29505L116.493 11.6145L113.087 11.6275L113.126 21.7947L110.68 21.8041L110.641 11.6369L107.239 11.65L107.23 9.33057L116.484 9.29505Z" fill="white"/>
</svg>
