<svg display="none" xmlns="http://www.w3.org/2000/svg" width="36"  height="36"> 

<symbol id="bed" viewBox="-3 0 50 60" > 
<path d="M45.3604 45.8182V45.7143C45.3604 45.7143 45.3604 45.7143 45.3604 45.6104L39.2342 19.9481V5.61039C39.2342 2.49351 36.7838 0 33.7207 0H12.0751C9.01202 0 6.56157 2.49351 6.56157 5.61039V19.9481L0.435446 45.6104C0.435446 45.7143 0.333344 45.9221 0.333344 46.026V62.1299C0.333344 63.1688 1.15016 64 2.17118 64C3.1922 64 4.00902 63.1688 4.00902 62.1299V59.2208C4.41743 58.0779 10.5436 55.2727 23 55.2727C35.4565 55.2727 41.5826 58.1818 41.991 59.2208V62.1299C41.991 63.1688 42.8078 64 43.8288 64C44.8499 64 45.6667 63.1688 45.6667 62.1299V46.1299C45.4625 46.026 45.3604 45.9221 45.3604 45.8182ZM9.72674 22.026H35.967L41.2763 44.2597H4.41743L9.72674 22.026ZM10.1351 5.61039C10.1351 4.57143 10.952 3.63636 12.0751 3.63636H33.7207C34.7418 3.63636 35.6607 4.46753 35.6607 5.61039V18.3896H10.1351V5.61039ZM22.8979 51.6364C17.1802 51.6364 8.70572 52.3636 3.90692 54.7532V47.8961H41.7868V54.7532C37.0901 52.3636 28.6156 51.6364 22.8979 51.6364Z" fill="#52503B"/>
</symbol>

<symbol id="door"><path d="M48.7044 0C51.8911 0 54.5639 2.60163 54.6666 5.93171V57.9642C54.6666 61.2943 51.9939 64 48.7044 64H15.2955C12.006 64 9.33331 61.2943 9.33331 57.9642V5.93171C9.33331 2.60163 12.006 0 15.1927 0H48.7044ZM48.6016 3.53821H15.1927C13.8564 3.53821 12.8284 4.68293 12.8284 5.93171V57.9642C12.8284 59.3171 13.9592 60.3577 15.1927 60.3577H48.6016C49.938 60.3577 50.966 59.213 50.966 57.9642V5.93171C50.966 4.57886 49.8352 3.53821 48.6016 3.53821ZM43.1534 27.7854C45.0038 27.7854 46.6485 29.3463 46.6485 31.3236C46.6485 33.3008 45.1066 34.8618 43.1534 34.8618C41.2003 34.8618 39.6583 33.3008 39.6583 31.3236C39.6583 29.3463 41.2003 27.7854 43.1534 27.7854Z" fill="#52503B"/>
</symbol>

<symbol id="bath"><path d="M62.1299 29.1512H57.7662H12.2597V8.89217C12.2597 7.52046 13.2987 6.46531 14.6494 6.46531H22.6494V9.52526C20.4675 9.84181 18.7013 11.7411 18.7013 14.0624V18.7051C18.7013 19.7603 19.5325 20.6044 20.5714 20.6044H27.9481C28.987 20.6044 29.8182 19.7603 29.8182 18.7051V14.0624C29.8182 11.9521 28.3636 10.1584 26.3896 9.63078V4.56603C26.3896 3.51087 25.5584 2.66675 24.5195 2.66675H14.6494C11.3247 2.66675 8.62338 5.41015 8.62338 8.78665V29.0456H6.96104H6.23377H1.87013C0.831169 29.0456 0 29.8898 0 30.9449C0 32.0001 0.831169 32.8442 1.87013 32.8442H4.36364V41.2854C4.36364 47.5109 8.93507 52.6811 14.8571 53.5253L12.5714 58.6955C12.1558 59.6452 12.5714 60.7003 13.5065 61.1224C13.7143 61.2279 14.026 61.3334 14.2338 61.3334C14.961 61.3334 15.5844 60.9114 15.8961 60.2783L18.8052 53.7363H47.3766C47.5844 53.7363 47.7922 53.7363 48.1039 53.7363L51.013 60.2783C51.3247 61.0169 51.9481 61.3334 52.6753 61.3334C52.8831 61.3334 53.1948 61.3334 53.4026 61.1224C54.3377 60.7003 54.7532 59.6452 54.3377 58.6955L51.7403 52.8922C56.3117 51.0984 59.6364 46.5612 59.6364 41.2854V32.8442H62.1299C63.1688 32.8442 64 32.0001 64 30.9449C64 29.9953 63.1688 29.1512 62.1299 29.1512ZM26.0779 16.9114H22.3377V14.0624C22.3377 13.5349 22.7532 13.1128 23.2727 13.1128H25.1429C25.6623 13.1128 26.0779 13.5349 26.0779 14.0624V16.9114ZM56 41.2854C56 46.0337 52.1558 50.0432 47.3766 50.0432H16.6234C11.9481 50.0432 8 46.1392 8 41.2854V32.8442H56V41.2854Z" fill="#52503B"/>
</symbol>

<symbol id="kitchen"><path d="M33.1364 0C34.6558 0 35.9416 1.22927 36 2.75122V33.1902C36 34.7707 34.7143 36 33.1948 36H2.80519C1.22727 36 0 34.7122 0 33.1902V2.75122C0 1.22927 1.22727 0 2.74675 0H33.1364ZM33.1364 1.99024H2.74675C2.33766 1.99024 1.98701 2.34146 1.98701 2.75122V33.1902C1.98701 33.6 2.33766 33.9512 2.74675 33.9512H33.1364C33.5455 33.9512 33.8961 33.6 33.8961 33.1902V2.75122C33.8961 2.34146 33.5455 1.99024 33.1364 1.99024ZM22.4416 29.6195C23.026 29.6195 23.4935 30.0878 23.4935 30.6732C23.4935 31.2585 23.026 31.7268 22.4416 31.7268H21.5649C20.9805 31.7268 20.513 31.2585 20.513 30.6732C20.513 30.0878 20.9805 29.6195 21.5649 29.6195H22.4416ZM27.8766 29.6195C28.461 29.6195 28.9286 30.0878 28.9286 30.6732C28.9286 31.2585 28.461 31.7268 27.8766 31.7268H27C26.4156 31.7268 25.9481 31.2585 25.9481 30.6732C25.9481 30.0878 26.4156 29.6195 27 29.6195H27.8766ZM10.5779 18.3805C13.0325 18.3805 15.0779 20.4293 15.0779 22.8878C15.0779 25.3463 13.0325 27.3951 10.5779 27.3951C8.12338 27.3951 6.07792 25.3463 6.07792 22.8878C6.07792 20.4293 8.12338 18.3805 10.5779 18.3805ZM25.3052 18.3805C27.8182 18.3805 29.8052 20.4293 29.8052 22.8878C29.8052 25.3463 27.7597 27.3951 25.3052 27.3951C22.8507 27.3951 20.8052 25.3463 20.8052 22.8878C20.8052 20.4293 22.8507 18.3805 25.3052 18.3805ZM10.5779 20.4293C9.23377 20.4293 8.12338 21.5415 8.12338 22.8878C8.12338 24.2341 9.23377 25.3463 10.5779 25.3463C11.9221 25.3463 13.0325 24.2341 13.0325 22.8878C13.0325 21.5415 11.9221 20.4293 10.5779 20.4293ZM25.3052 20.4293C23.961 20.4293 22.8506 21.5415 22.8506 22.8878C22.8506 24.2341 23.961 25.3463 25.3052 25.3463C26.6494 25.3463 27.7597 24.2341 27.7597 22.8878C27.7597 21.5415 26.6494 20.4293 25.3052 20.4293ZM10.5779 5.32683C13.0325 5.32683 15.0779 7.31707 15.0779 9.83415C15.0779 12.2927 13.0325 14.3415 10.5779 14.3415C8.12338 14.3415 6.07792 12.2927 6.07792 9.83415C6.07792 7.37561 8.12338 5.32683 10.5779 5.32683ZM25.3052 5.32683C27.8182 5.32683 29.8052 7.31707 29.8052 9.83415C29.8052 12.2927 27.7597 14.3415 25.3052 14.3415C22.8507 14.3415 20.8052 12.2927 20.8052 9.83415C20.8052 7.37561 22.8507 5.32683 25.3052 5.32683ZM10.5779 7.37561C9.23377 7.37561 8.12338 8.4878 8.12338 9.83415C8.12338 11.1805 9.23377 12.2927 10.5779 12.2927C11.9221 12.2927 13.0325 11.1805 13.0325 9.83415C13.0325 8.4878 11.9221 7.37561 10.5779 7.37561ZM25.3052 7.37561C23.961 7.37561 22.8506 8.4878 22.8506 9.83415C22.8506 11.1805 23.961 12.2927 25.3052 12.2927C26.6494 12.2927 27.7597 11.1805 27.7597 9.83415C27.7597 8.4878 26.6494 7.37561 25.3052 7.37561Z" fill="#52503B"/>
</symbol>

<symbol id="conditioner"><path d="M33.1948 0C34.7143 0 36 1.26 36 2.82V15.12C36 16.74 34.7143 18 33.1948 18H2.80519C1.28571 18 0.0584416 16.74 0 15.24V2.88C0 1.26 1.28571 0 2.80519 0H33.1948ZM17.0065 12.24H10.5779V15.9H17.0065V12.24ZM25.4805 12.24H19.0519V15.9H25.4805V12.24ZM8.53247 12.24H2.1039V15.18C2.1039 15.6 2.3961 15.9 2.80519 15.9H8.53247V12.24ZM33.8961 12.24H27.4675V15.9H33.1948C33.6039 15.9 33.9545 15.6 33.8961 15.18V12.24ZM33.1948 2.1H2.80519C2.3961 2.1 2.1039 2.4 2.1039 2.82V10.2H33.9545V2.88C33.9545 2.46 33.6039 2.1 33.1948 2.1ZM29.7468 4.98C30.3312 4.98 30.7987 5.46 30.7987 6.06C30.7987 6.66 30.3312 7.14 29.7468 7.14H26.0065C25.4221 7.14 24.9545 6.66 24.9545 6.06C24.9545 5.46 25.4221 4.98 26.0065 4.98H29.7468Z" fill="#52503B"/>
</symbol>

<symbol id="forest"><path d="M29.1132 9.14579L29.3079 9.15639C29.7545 9.20558 30.1451 9.42422 30.4012 9.77405L33.7968 14.2861C34.148 14.743 34.2066 15.3712 33.9139 15.8853C33.7382 16.1708 33.5041 16.3993 33.2113 16.5706L35.7873 20.8542C36.08 21.3682 36.08 21.9394 35.7287 22.4534C35.4946 22.9674 34.9677 23.253 34.3822 23.253H30.167V28.2219C30.167 28.7931 29.6987 29.25 29.1132 29.25C28.5278 29.25 28.0595 28.7931 28.0595 28.2219V23.253H23.7857C23.2588 23.253 22.7319 22.9103 22.4392 22.4534C22.1465 21.9965 22.1465 21.3682 22.4392 20.9113L25.0152 16.5706C24.7224 16.4564 24.4883 16.1708 24.3126 15.8853C24.0199 15.3712 24.0785 14.743 24.4297 14.2861L27.8253 9.77405C28.118 9.37425 28.5864 9.14579 29.1132 9.14579ZM9.6766 0.75C10.2035 0.75 10.6718 0.978457 10.9646 1.37826L16.4677 8.57465C16.819 9.03156 16.8775 9.65982 16.5848 10.1738C16.2921 10.6879 15.7652 11.0306 15.1212 11.0306L19.2778 18.1698C19.5706 18.6268 19.5706 19.255 19.2778 19.7119C19.0437 20.1688 18.5168 20.4544 17.9313 20.4544H10.7889V28.1648C10.7889 28.736 10.3206 29.1929 9.73514 29.1929C9.1497 29.1929 8.68135 28.736 8.68135 28.1648V20.4544H1.59751C1.01207 20.4544 0.48517 20.1117 0.192449 19.5977C-0.100271 19.1408 -0.0417271 18.5125 0.250994 18.0556L4.81744 11.0306H4.29054C3.7051 11.0306 3.1782 10.6879 2.88548 10.1738C2.59276 9.65982 2.6513 9.03156 3.00257 8.57465L8.38863 1.37826C8.68135 0.978457 9.1497 0.75 9.6766 0.75ZM29.0547 11.4304L26.4202 14.9143C26.6544 15.0286 26.8886 15.257 27.0057 15.4855C27.2984 15.9424 27.2984 16.5706 27.0057 17.0276L24.5468 21.1969H33.5626L31.1037 17.0276C30.811 16.5706 30.811 15.9424 31.1037 15.4855C31.2208 15.257 31.455 15.0286 31.6892 14.9143L29.0547 11.4304ZM9.6766 3.09168L5.1687 9.08868H5.57851C6.16395 9.08868 6.74939 9.43136 6.98357 9.88828C7.21774 10.3452 7.21774 10.9734 6.92502 11.4304L2.41713 18.4554H17.0532L12.8965 11.3732C12.6038 10.9163 12.6038 10.2881 12.8965 9.83116C13.1892 9.43136 13.6576 9.08868 14.1845 9.08868L9.6766 3.09168Z" fill="#52503B"/>
</symbol>

<symbol id="briefcase"><path d="M31.4416 6.65453H25.1883V4.60302C25.1883 2.31705 23.3182 0.5 21.0974 0.5H14.9026C12.6234 0.5 10.8117 2.37567 10.8117 4.60302V6.65453H4.55844C2.04545 6.65453 0 8.70604 0 11.2265V16.9707C0 17.5568 0.467533 18.0258 1.05195 18.0258H1.57792V29.1625C1.57792 31.5657 3.50649 33.5 5.9026 33.5H30.0974C32.4935 33.5 34.4221 31.5657 34.4221 29.1625V18.0258H34.9481C35.5325 18.0258 36 17.5568 36 16.9707V11.2265C36 8.70604 33.9545 6.65453 31.4416 6.65453ZM12.8571 4.60302C12.8571 3.48934 13.7922 2.55151 14.9026 2.55151H21.039C22.1494 2.55151 23.0844 3.48934 23.0844 4.60302V6.65453H12.8571V4.60302ZM2.1039 11.2265C2.1039 9.87833 3.21429 8.70604 4.61688 8.70604H31.5C32.8442 8.70604 34.013 9.81972 34.013 11.2265V15.9742H2.1039V11.2265ZM32.3766 29.1039C32.3766 30.3934 31.3247 31.3899 30.0974 31.3899H5.9026C4.61688 31.3899 3.62338 30.3348 3.62338 29.1039V17.9671H10.8117V21.6012C10.8117 22.1874 11.2792 22.6563 11.8636 22.6563C12.4481 22.6563 12.9156 22.1874 12.9156 21.6012V17.9671H23.2013V21.6012C23.2013 22.1874 23.6688 22.6563 24.2532 22.6563C24.8377 22.6563 25.3052 22.1874 25.3052 21.6012V17.9671H32.4935V29.1039H32.3766Z" fill="#52503B"/>
</symbol>

<symbol id="coffee"><path d="M31.7102 0H10.5983C8.59324 0 7.001 1.57792 7.001 3.56494V6.37013C7.001 8.00649 8.0625 9.35065 9.59576 9.75974V12.0974C9.59576 12.6818 10.0675 13.1494 10.6573 13.1494C11.247 13.1494 11.7187 12.6818 11.7187 12.0974V9.93507H23.8079C24.6336 9.93507 25.3412 10.6364 25.3412 11.4545V24.5455C25.3412 25.3636 24.6336 26.0649 23.8079 26.0649H14.2545C15.8468 24.8377 16.8493 22.9091 16.8493 20.8052C16.8493 20.2208 16.3775 19.7532 15.7878 19.7532H4.2883C3.69859 19.7532 3.22681 20.2208 3.22681 20.8052C3.22681 22.9091 4.22933 24.8377 5.82157 26.0649H4.34728C2.34224 26.0649 0.75 27.6429 0.75 29.6299V32.4351C0.75 34.4221 2.34224 36 4.34728 36H31.6512C33.6562 36 35.2485 34.4221 35.2485 32.4351V3.56494C35.3074 1.63636 33.6562 0 31.7102 0ZM14.6084 21.7987C14.1366 23.9026 12.2495 25.4221 10.0086 25.4221C7.76764 25.4221 5.88054 23.8442 5.40877 21.7987H14.6084ZM33.2434 32.4351C33.2434 33.2532 32.5358 33.9545 31.7102 33.9545H4.34728C3.52167 33.9545 2.81401 33.2532 2.81401 32.4351V29.6299C2.81401 28.8117 3.52167 28.1104 4.34728 28.1104H23.69C25.695 28.1104 27.2873 26.5325 27.2873 24.5455V11.4545C27.2873 9.46753 25.695 7.88961 23.69 7.88961H10.5983C9.77268 7.88961 9.06502 7.18831 9.06502 6.37013V3.56494C9.06502 2.74675 9.77268 2.04545 10.5983 2.04545H31.6512C32.4768 2.04545 33.1845 2.74675 33.1845 3.56494V32.4351H33.2434Z" fill="#52503B"/>
</symbol>

<symbol id="glass" viewBox="10 1.4 6 35"><path d="M20.2376 23.9806C22.3328 21.7634 23.4103 18.7877 23.2307 15.7536L22.2729 3.20908C22.1532 1.40032 20.5968 0 18.7411 0H5.2724C3.41671 0 1.86033 1.40032 1.74061 3.20908L0.782834 15.7536C0.54339 18.7877 1.62089 21.7634 3.77588 23.9806C5.63157 25.9643 8.20559 27.1896 10.9592 27.423V33.8995H6.29004C5.69143 33.8995 5.21254 34.3663 5.21254 34.9498C5.21254 35.5332 5.69143 36 6.29004 36H17.7235C18.3221 36 18.801 35.5332 18.801 34.9498C18.801 34.3663 18.3221 33.8995 17.7235 33.8995H13.0543V27.423C15.8079 27.1896 18.3819 25.9643 20.2376 23.9806ZM5.2724 2.04214H18.7411C19.4594 2.04214 20.1179 2.62561 20.1778 3.32577L20.5968 8.57699H3.47657L3.8956 3.32577C3.8956 2.62561 4.55407 2.04214 5.2724 2.04214ZM2.93783 15.8703L3.29699 10.6775H20.7165L21.0757 15.8703C21.2553 18.3793 20.4172 20.7131 18.6812 22.5802C16.9453 24.389 14.5508 25.4392 11.9768 25.4392C9.4028 25.4392 7.06823 24.4473 5.2724 22.5802C3.5963 20.7715 2.75824 18.3793 2.93783 15.8703Z" fill="#52503B"/>
</symbol>

<symbol id="mountain">
<path d="M23.1429 7.35075L23.4085 7.36064C24.6325 7.45258 25.6325 8.17974 26.1234 9.3081L32.961 25.4851H34.9481C35.5325 25.4851 36 25.8881 36 26.4638C36 27.0394 35.5325 27.5 34.9481 27.5H1.05195C0.467533 27.5 0 27.097 0 26.5213C0 25.9456 0.467533 25.4851 1.05195 25.4851H2.33766L8.2987 11.0928C8.76623 9.88379 9.87662 9.13539 11.2208 9.13539C12.5649 9.19296 13.6753 9.88379 14.2013 11.0928L16.8896 17.3678L20.2208 9.3081C20.6883 8.09915 21.7987 7.35075 23.1429 7.35075ZM23.1429 9.42324L23.0854 9.42506C22.8637 9.43847 22.3566 9.53838 22.0909 10.1141L17.9416 20.0736L20.2792 25.5426H22.2078V24.161C21.039 23.6429 20.2208 22.2612 20.2208 20.5341C20.2208 18.3465 21.5649 16.677 23.2013 16.677C24.8377 16.677 26.1818 18.4041 26.1818 20.5341C26.1818 22.2612 25.4221 23.6429 24.2532 24.161V25.5426H30.7403L24.1948 10.1141C23.961 9.48081 23.3182 9.42324 23.1429 9.42324ZM11.2208 11.2079C11.0455 11.2079 10.461 11.2655 10.1688 11.8987L4.5 25.5426H18.0584L12.2727 11.8987C12.039 11.2655 11.3961 11.2079 11.2208 11.2079ZM23.2013 18.6343C22.8506 18.6343 22.2662 19.3252 22.2662 20.4765C22.2662 21.6279 22.7922 22.3188 23.2013 22.3188C23.6104 22.3188 24.1364 21.6279 24.1364 20.4765C24.1364 19.3252 23.5519 18.6343 23.2013 18.6343ZM30.7987 0.5C32.8442 0.5 34.4805 2.11194 34.4805 4.12687C34.4805 6.14179 32.7857 7.75373 30.7987 7.75373C28.8117 7.75373 27.1169 6.14179 27.1169 4.12687C27.1169 2.11194 28.7532 0.5 30.7987 0.5ZM30.7987 2.57249C29.9221 2.57249 29.1623 3.26333 29.1623 4.18443C29.1623 5.10554 29.8636 5.79638 30.7987 5.79638C31.7338 5.79638 32.4351 5.10554 32.4351 4.18443C32.4351 3.26333 31.6753 2.57249 30.7987 2.57249Z" fill="#52503B"/>
</symbol>

<symbol id="pizza"><path d="M35.8627 20.6722C34.5743 16.577 31.6461 12.1307 27.7224 8.21103C23.8572 4.29132 19.4064 1.42467 15.3069 0.137603C13.8429 -0.330422 12.2031 0.430118 11.676 1.8927L0.197584 32.0218C-0.21236 33.1334 0.0218934 34.3034 0.841781 35.1225C1.42742 35.7075 2.13018 36 2.8915 36C3.24288 36 3.59426 35.9415 3.94564 35.8245L21.5732 29.0966C21.6318 29.0966 21.6318 29.0966 21.6904 29.0381L23.7986 28.2191L34.0472 24.2994C35.5699 23.7729 36.3312 22.1348 35.8627 20.6722ZM3.24288 33.8354C2.77437 34.0109 2.42299 33.7184 2.30587 33.6599C2.18874 33.5429 1.89592 33.2504 2.13018 32.7238L4.58984 26.2885C5.17548 27.5756 6.40531 28.4531 7.92796 28.4531C9.91911 28.4531 11.5589 26.815 11.5589 24.8259C11.5589 22.8368 9.91911 21.1987 7.92796 21.1987C7.40089 21.1987 6.87382 21.3157 6.40531 21.5497L10.9733 9.4981C11.7346 9.96612 12.4959 10.4341 13.2572 11.0192C12.3202 11.6627 11.7346 12.7743 11.7346 13.9443C11.7346 15.9334 13.3744 17.5715 15.3655 17.5715C16.8882 17.5715 18.1766 16.6355 18.7036 15.3484C21.5147 17.981 24.2672 21.1402 26.6097 25.0014L25.2042 25.5279C25.2042 23.5388 23.5644 21.9008 21.5732 21.9008C19.5821 21.9008 17.9423 23.5388 17.9423 25.5279C17.9423 26.464 18.2937 27.283 18.8793 27.9266L3.24288 33.8354ZM6.28818 24.8259C6.28818 23.9484 6.99094 23.2463 7.86939 23.2463C8.74784 23.2463 9.45061 23.9484 9.45061 24.8259C9.45061 25.7035 8.74784 26.4055 7.86939 26.4055C6.99094 26.4055 6.28818 25.7035 6.28818 24.8259ZM16.9467 13.8273C16.9467 13.8858 16.9467 13.8858 16.9467 13.9443C16.9467 14.8219 16.244 15.5239 15.3655 15.5239C14.4871 15.5239 13.7843 14.8219 13.7843 13.9443C13.7843 13.1253 14.3699 12.4818 15.1898 12.3647C15.7755 12.8328 16.3611 13.3008 16.9467 13.8273ZM21.1633 27.049C20.4605 26.8735 19.9335 26.23 19.9335 25.5279C19.9335 24.6504 20.6362 23.9484 21.5147 23.9484C22.3931 23.9484 23.0959 24.6504 23.0959 25.5279C23.0959 25.879 22.9788 26.1715 22.8031 26.4055L21.1633 27.049ZM33.403 22.3688L28.5423 24.2409C25.6727 19.3851 22.1003 15.5239 18.6451 12.5403C18.5865 12.5403 18.5865 12.4818 18.5279 12.4818C17.708 11.7797 16.8882 11.1362 16.0683 10.5512L16.0097 10.4927C14.4871 9.38109 13.023 8.38654 11.676 7.5675L13.55 2.59473C13.6672 2.24371 14.0186 2.0097 14.3699 2.0097C14.4871 2.0097 14.5456 2.0097 14.6628 2.06821C18.4108 3.23827 22.6274 6.04642 26.2583 9.67361C29.8892 13.3008 32.7003 17.5715 33.8716 21.3157C34.0472 21.7252 33.813 22.1933 33.403 22.3688Z" fill="#52503B"/>
</symbol>

<symbol id="star" ><path d="M17.5927 6.48942L11.9726 5.62002L9.42655 0.279449C9.24025 -0.0931496 8.74346 -0.0931496 8.55716 0.279449L6.01107 5.65107L0.422094 6.48942C0.0184458 6.55152 -0.136803 7.07937 0.173695 7.35882L4.24123 11.5505L3.27868 17.419C3.21658 17.8226 3.62023 18.1642 3.99283 17.9158L9.05395 15.1523L14.084 17.9158C14.4256 18.1021 14.8603 17.7916 14.7671 17.419L13.8046 11.5505L17.8721 7.35882C18.1205 7.07937 17.9963 6.55152 17.5927 6.48942Z" fill="#52503B"/>
</symbol>

<symbol id="whitestar"><path d="M17.9322 6.78C17.8122 6.42 17.5122 6.15 17.1522 6.09L12.1422 5.31L9.89215 0.57C9.71215 0.21 9.38215 0 8.99215 0C8.60215 0 8.27215 0.21 8.12215 0.57L5.87215 5.34L0.832151 6.15C0.472151 6.21 0.172151 6.48 0.0521506 6.84C-0.0678494 7.2 0.0221506 7.62 0.292151 7.89L3.92215 11.61L3.08215 16.8C3.02215 17.19 3.17215 17.58 3.50215 17.82C3.68215 17.94 3.86215 18 4.04215 18C4.19215 18 4.37215 17.97 4.49215 17.88L8.99215 15.42L13.4622 17.85C13.7922 18.03 14.1822 18 14.4822 17.79C14.8122 17.55 14.9622 17.16 14.9022 16.77L14.0622 11.55L17.6922 7.83C17.9622 7.56 18.0522 7.14 17.9322 6.78ZM17.2422 7.41L13.6422 11.13C13.5222 11.25 13.4622 11.46 13.4922 11.64L14.3322 16.86C14.3622 17.07 14.2722 17.22 14.1522 17.28C14.0922 17.31 13.9422 17.4 13.7622 17.31L9.26215 14.88C9.08215 14.79 8.90215 14.79 8.72215 14.88L4.22215 17.34C4.04215 17.43 3.89215 17.37 3.83215 17.31C3.74215 17.25 3.62215 17.07 3.65215 16.89L4.52215 11.7C4.55215 11.52 4.49215 11.31 4.37215 11.19L0.742151 7.47C0.592151 7.32 0.592151 7.14 0.622151 7.02C0.682151 6.87 0.772151 6.78 0.922151 6.75L5.96215 5.94C6.14215 5.91 6.32215 5.79 6.38215 5.61L8.63215 0.84C8.72215 0.69 8.84215 0.6 8.99215 0.6C9.14215 0.6 9.26215 0.69 9.32215 0.84L11.5722 5.61C11.6622 5.79 11.8122 5.91 11.9922 5.94L17.0022 6.72C17.1522 6.75 17.2722 6.84 17.3022 6.99C17.3922 7.08 17.3922 7.29 17.2422 7.41Z" fill="#52503B"/>
</symbol>

<symbol id="bread"><path d="M18.0289 0.5C7.96083 0.5 0 4.73387 0 10.0565C0 10.5403 0.0585355 11.0847 0.234142 11.629C0.585355 12.7177 1.40485 13.5645 2.51703 13.9274C5.50234 14.8952 11.4144 15.5 17.9704 15.5C24.5264 15.5 30.4385 14.8952 33.4238 13.9274C34.536 13.5645 35.3555 12.7177 35.7067 11.6895L35.7652 11.5685C35.8823 11.0242 35.9997 10.5403 35.9997 10.0565C36.0579 4.67339 28.0971 0.5 18.0289 0.5ZM33.8921 10.9637V11.0242C33.775 11.4476 33.4238 11.8105 32.9555 11.9315C30.1458 12.8387 24.2923 13.3831 18.0289 13.3831C11.7656 13.3831 5.91209 12.7782 3.16092 11.9315C2.69264 11.75 2.34142 11.4476 2.22435 11.0242C2.10728 10.7218 2.10728 10.3589 2.10728 10.0565C2.10728 7.93952 4.15602 5.94355 7.37548 4.55242C7.96083 7.15322 9.77544 9.02823 11.9413 9.02823C12.5266 9.02823 12.9949 8.54436 12.9949 7.93952C12.9949 7.33468 12.5266 6.85081 11.9413 6.85081C10.712 6.85081 9.59983 5.58065 9.30715 3.76613C11.0632 3.22177 13.112 2.79839 15.2192 2.61694C15.5705 5.58065 17.3265 8.96774 19.9021 8.96774C20.4874 8.96774 20.9557 8.48387 20.9557 7.87903C20.9557 7.27419 20.4874 6.79032 19.9021 6.79032C18.7899 6.79032 17.5607 4.67339 17.268 2.43548C17.5021 2.43548 17.7948 2.43548 18.0289 2.43548C19.785 2.43548 21.5411 2.55645 23.1215 2.85887C23.2386 6.18548 25.3459 8.90726 27.8629 8.90726C28.4483 8.90726 28.9166 8.42339 28.9166 7.81855C28.9166 7.21371 28.4483 6.72984 27.8629 6.72984C26.5166 6.72984 25.4044 5.15726 25.1703 3.22177C30.3214 4.49194 33.9506 7.03226 33.9506 9.875C34.0092 10.3589 33.9506 10.6613 33.8921 10.9637Z" fill="#52503B"/>
</symbol>

<symbol id="hanger"><path d="M28.2524 24.0195L17.6505 18.4675C17.767 18.1169 17.6505 17.6494 17.301 17.4156C16.8932 17.0649 16.2524 17.1234 15.8447 17.5325C15.7282 17.7078 15.2621 17.8247 14.7379 17.7078C14.2718 17.5909 13.9806 17.2403 13.9223 16.7143C13.8641 15.9545 14.2136 15.4286 15.0874 15.0779C15.6699 14.8442 16.0777 14.2597 16.0194 13.6169V9.81818C18.233 9.35065 19.8641 7.36364 19.8641 4.96753C19.8641 2.22078 17.6505 0 14.9126 0C12.1748 0 9.96116 2.22078 9.96116 4.96753C9.96116 7.36364 11.6505 9.35065 13.9223 9.81818L13.9806 13.2662C12.5243 14.026 11.7087 15.3117 11.8835 16.8896C11.9417 17.474 12.1165 17.9416 12.4078 18.4091L1.74757 24.0195C0.873786 24.4286 0.291262 25.2468 0.0582526 26.1818C0.0582526 26.1818 0.0582526 26.1818 0.0582526 26.2403C1.45286e-07 26.474 0 26.7078 0 26.9416V32.7273C0 34.539 1.45631 36 3.26214 36H26.7379C28.5437 36 30 34.539 30 32.7273V26.9416C30 25.6558 29.301 24.5455 28.2524 24.0195ZM12.0583 4.96753C12.0583 3.33117 13.3398 2.04545 14.9709 2.04545C16.6019 2.04545 17.8835 3.33117 17.8835 4.96753C17.8835 6.6039 16.6019 7.88961 14.9709 7.88961C13.3398 7.88961 12.0583 6.6039 12.0583 4.96753ZM14.3301 19.7532L14.3883 19.6948C14.6796 19.7532 14.9126 19.8117 15.2039 19.8117C15.3786 19.8117 15.5534 19.8117 15.7282 19.7532L26.4466 25.3636H3.5534L14.3301 19.7532ZM26.7379 33.9545H3.20388C2.50485 33.9545 1.98058 33.3701 1.98058 32.7273V27.4675H27.9612V32.7273C27.9612 33.3701 27.3786 33.9545 26.7379 33.9545Z" fill="#52503B"/>
</symbol>

<symbol id="cutlery"><path d="M23.6133 0C27.0703 0 29.9414 2.80976 30 6.38049V18.9659C30 20.0195 29.1797 20.839 28.125 20.839H26.8945V33.3073C26.8945 34.7707 25.6641 36 24.1992 36H22.5C21.0352 36 19.8047 34.7707 19.8047 33.3073V1.87317C19.8047 0.819512 20.625 0 21.6797 0H23.6133ZM6.32812 0.0585366C6.91406 0.0585366 7.38281 0.526829 7.38281 1.1122V10.0683H10.6641V1.17073C10.6641 0.585366 11.1328 0.117073 11.7188 0.117073C12.3047 0.117073 12.7148 0.585366 12.7734 1.1122V16.0976C12.7734 16.9756 12.1289 17.6195 11.25 17.6195H9.90234V33.2488C9.90234 34.7122 8.67188 35.9415 7.20703 35.9415H5.56641C4.10156 35.9415 2.87109 34.7122 2.87109 33.2488V17.561H1.52344C0.644531 17.561 0 16.9171 0 16.039V1.1122C0 0.585366 0.410156 0.0585366 0.996094 0.0585366C1.58203 0.0585366 2.05078 0.526829 2.05078 1.1122V10.0098H5.27344V1.1122C5.27344 0.526829 5.74219 0.0585366 6.32812 0.0585366ZM24.8438 20.839H21.8555V33.3073C21.8555 33.6585 22.1484 33.9512 22.5 33.9512H24.1992C24.5508 33.9512 24.8438 33.6 24.8438 33.2488V20.839ZM7.85156 17.6195H4.92188V33.3073C4.92188 33.6585 5.21484 33.9512 5.56641 33.9512H7.20703C7.55859 33.9512 7.85156 33.6585 7.85156 33.3073V17.6195ZM23.5547 2.04878H21.7969V18.7902H27.8906V6.38049C27.8906 3.98049 25.957 2.04878 23.5547 2.04878ZM10.7227 12.0585H2.05078V15.5707H10.7227V12.0585Z" fill="#52503B"/>
</symbol>

<symbol id="meta"><path d="M15.0398 24.3608C13.2624 22.0899 12.2468 20.1286 11.8914 18.3738C10.3171 12.0256 19.8132 12.0256 18.239 18.3738C17.8327 20.1286 16.7663 22.1931 15.0398 24.3608ZM24.6882 29.5736C21.7429 30.8639 18.7976 28.7994 16.3093 26.0124C23.6218 16.7223 19.6101 11.6643 15.0398 11.6643C11.1804 11.6643 9.04762 14.9158 9.9109 18.8383C10.4187 20.9544 11.6882 23.277 13.7703 25.9608C11.4851 28.4898 9.55543 29.7285 7.77809 29.8833C4.2742 30.451 1.53203 26.993 2.85234 23.4318C3.91874 20.6448 10.7234 6.916 11.0281 6.19343C12.0945 4.02573 12.8054 2.11609 15.1921 2.11609C17.4773 2.11609 18.2898 3.9225 19.4069 6.39988C21.9968 11.4062 25.7038 19.0448 27.4811 23.4318C28.2428 25.7543 27.278 28.4898 24.6882 29.5736ZM28.0397 19.8706C18.9499 0.309671 18.4421 0 15.0398 0C11.8406 0 10.4695 2.27092 9.0984 5.16119C1.58281 20.3867 0.922656 22.4512 0.770313 22.7092C-0.956242 27.664 2.69999 31.9994 7.06716 31.9994C8.59059 31.9994 11.3835 31.5865 14.989 27.5608C19.153 32.1542 22.1491 31.9994 22.9108 31.9994C27.3288 31.9994 30.985 27.6124 29.2077 22.7092C29.2585 22.3996 28.0397 19.9222 28.0397 19.8706Z" />
</symbol>
<symbol id="facebook" viewBox="4 0 5 35"><path d="M11.1286 32H7.19387C6.18497 32 5.37785 31.1447 5.37785 30.0881V18.1132H2.14936C1.14046 18.1132 0.333344 17.2579 0.333344 16.2013V12.7296C0.333344 11.673 1.14046 10.8176 2.14936 10.8176H5.27696V7.6478C5.27696 3.06918 8.00099 0 12.0366 0H15.0633C16.0722 0 16.8793 0.855346 16.8793 1.91195V5.98742C16.8793 7.04403 16.0722 7.89937 15.0633 7.89937H12.995C12.9446 7.89937 12.9446 7.89937 12.8942 7.89937C12.8942 7.94969 12.8942 8 12.8942 8.05031V10.7673H15.7695C16.3749 10.8176 16.8793 11.0692 17.2324 11.4717C17.5855 11.9245 17.7369 12.5283 17.636 13.0818L17.0307 16.5031C16.9298 17.4088 16.1731 18.0629 15.2146 18.0629H12.8942V30.0881C12.8942 31.0943 12.087 32 11.1286 32ZM6.23541 16.3522C6.73986 16.3522 7.14342 16.7547 7.14342 17.2579V30.0881C7.14342 30.1887 7.19387 30.239 7.19387 30.239H11.1286C11.1286 30.239 11.179 30.1887 11.179 30.0881V17.1572C11.179 16.6541 11.5826 16.2516 12.087 16.2516H15.2651C15.2651 16.2516 15.3155 16.2516 15.3155 16.2013V16.1509L15.9209 12.7799C15.9209 12.6792 15.9209 12.6289 15.8704 12.5786C15.8704 12.5786 15.82 12.5283 15.7695 12.5283H12.0366C11.5321 12.5283 11.1286 12.1258 11.1286 11.6226V8.05031C11.1286 7.14465 11.2799 6.13836 12.995 6.13836H15.0633C15.0633 6.13836 15.1137 6.08805 15.1137 5.98742V1.96226C15.1137 1.86164 15.0633 1.81132 15.0633 1.81132H12.087C9.06034 1.81132 7.09298 4.12579 7.09298 7.69811V11.7736C7.09298 12.2767 6.68942 12.6792 6.18497 12.6792H2.14936C2.14936 12.6792 2.09892 12.7296 2.09892 12.8302V16.3019C2.09892 16.4025 2.14936 16.4528 2.14936 16.4528L6.23541 16.3522Z" />
</symbol>
<symbol id="instagram"><path d="M24.0378 0C28.422 0 32 3.53312 32 7.92429V24.0252C32 28.4164 28.4724 32 24.0882 32H7.9622C3.57795 32 0 28.4669 0 24.0757V7.92429C0 3.53312 3.52756 0 7.91181 0H24.0378ZM24.0378 1.76656H7.91181C4.53543 1.76656 1.76378 4.54259 1.76378 7.92429V24.0757C1.76378 27.5079 4.53543 30.2839 7.91181 30.2839H24.0882C27.4646 30.2839 30.2362 27.5079 30.2362 24.0757V7.97476C30.2362 4.54259 27.4646 1.76656 24.0378 1.76656ZM15.9748 8.58044C20.0567 8.58044 23.3827 11.9117 23.3827 16C23.3827 20.0883 20.0567 23.4196 15.9748 23.4196C11.8929 23.4196 8.56693 20.0883 8.56693 16C8.56693 11.9117 11.8929 8.58044 15.9748 8.58044ZM15.9748 10.347C12.8504 10.347 10.3307 12.8707 10.3307 16C10.3307 19.1293 12.8504 21.653 15.9748 21.653C19.0992 21.653 21.6189 19.1293 21.6189 16C21.6189 12.8707 19.0992 10.347 15.9748 10.347ZM24.0882 4.94637C25.1465 4.94637 26.0031 5.80442 26.0031 6.86435C26.0031 7.92429 25.1465 8.78234 24.0882 8.78234C23.0299 8.78234 22.1732 7.92429 22.1732 6.86435C22.1732 5.80442 23.0299 4.94637 24.0882 4.94637Z" />
</symbol>

<symbol id="wifi" fill="none">
<path d="M31.4706 26.3206C34 26.3206 36 28.35 36 30.7853C36 33.2206 33.9412 35.25 31.4706 35.25C29 35.25 26.9412 33.2206 26.9412 30.7853C26.9412 28.35 29 26.3206 31.4706 26.3206ZM33.1176 0.75C33.7059 0.75 34.1765 1.21387 34.1765 1.7937C34.1765 2.37353 33.7059 2.83739 33.1176 2.83739C16 2.83739 2.05882 16.5214 2.11765 33.4525C2.11765 34.0324 1.64706 34.4962 1.05882 34.4962C0.470588 34.4962 0 34.0324 0 33.4525C0 15.4197 14.8235 0.807983 33.1176 0.75ZM33.0588 10.2013C33.6471 10.2013 34.1176 10.6651 34.1176 11.245C34.1176 11.7668 33.7059 12.2307 33.1176 12.2307C21.2353 12.2307 11.5882 21.7399 11.6471 33.3945C11.6471 33.9744 11.1765 34.4382 10.5882 34.4382C10 34.4382 9.52941 33.9744 9.52941 33.3945C9.52941 20.6382 20.0588 10.2013 33.0588 10.2013ZM33.0588 19.5366C33.6471 19.5366 34.1176 20.0004 34.1176 20.5803C34.1176 21.1601 33.7059 21.566 33.1176 21.566C26.5294 21.566 21.1176 26.8424 21.1176 33.3945C21.1176 33.9744 20.6471 34.4382 20.0588 34.4382C19.4706 34.4382 19 33.9744 19 33.3945C19 25.7408 25.2941 19.5366 33.0588 19.5366ZM31.4706 28.408C30.1176 28.408 29 29.5097 29 30.8433C29 32.1769 30.1176 33.2786 31.4706 33.2786C32.8235 33.2786 33.9412 32.1769 33.9412 30.8433C33.9412 29.5097 32.8235 28.408 31.4706 28.408Z" fill="#52503B"/>
</symbol>

<symbol id="logo" width="129" height="47" >

<path  d="M0.068222 1.06771L128.067 0.580033L128.24 45.5572L44.9612 45.8957L0.240989 46.0674L0.068222 1.06771ZM41.8533 3.87227L3.02614 4.02134L3.17614 43.0911L42.0033 42.942L41.8533 3.87227ZM125.143 3.54499L44.7998 3.85346L44.9498 42.9232L125.293 42.6148L125.143 3.54499ZM84.5612 24.5683L84.5888 31.7555C84.5929 32.8402 84.8459 33.6274 85.3401 34.1171C85.8418 34.6069 86.4544 34.8522 87.1892 34.8494C87.9202 34.8466 88.5347 34.5965 89.0289 34.103C89.523 33.6094 89.7662 32.8203 89.762 31.7357L89.7344 24.5485L92.1812 24.5391L92.209 31.7788C92.2155 33.494 91.732 34.817 90.7546 35.7515C89.7773 36.6898 88.593 37.1635 87.1981 37.1688C85.7882 37.1742 84.5966 36.7097 83.6196 35.7789C82.6425 34.8519 82.1488 33.5326 82.1422 31.8175L82.1144 24.5777L84.5612 24.5683ZM99.82 24.3822C100.674 24.3789 101.518 24.5633 102.358 24.9354C103.199 25.3075 103.951 25.8075 104.617 26.4355L103.026 27.9203C102.574 27.5543 102.047 27.2598 101.438 27.0332C100.825 26.8103 100.291 26.6998 99.8289 26.7016L99.6909 26.7021C99.1688 26.7041 98.6843 26.8148 98.2301 27.038C97.7759 27.2612 97.5498 27.6148 97.5516 28.1027C97.5531 28.4818 97.7332 28.7626 98.092 28.9376C98.4544 29.1164 98.9659 29.2458 99.6264 29.3258L100.623 29.4308C102.007 29.5906 103.086 29.9656 103.861 30.5518C104.639 31.1343 105.03 32.0336 105.035 33.2458C105.039 34.4131 104.588 35.3456 103.688 36.0434C102.784 36.7412 101.629 37.1022 100.227 37.1188L100.119 37.1192C98.9514 37.1237 97.9136 36.8912 97.0055 36.4256C96.0973 35.9599 95.3789 35.3584 94.8464 34.6211L96.4334 33.14C96.7559 33.5891 97.2348 33.9776 97.8739 34.3092C98.5129 34.6408 99.2595 34.8031 100.11 34.7998L100.218 34.7994C100.938 34.7854 101.512 34.6405 101.943 34.3649C102.375 34.0893 102.59 33.7206 102.588 33.2552C102.586 32.7561 102.387 32.3965 101.998 32.1804C101.606 31.9604 101.038 31.8087 100.292 31.714L99.3181 31.6089C96.5158 31.2856 95.1127 30.1538 95.1052 28.2022C95.1009 27.0575 95.53 26.1438 96.3964 25.4612C97.2628 24.771 98.3543 24.4141 99.682 24.3827L99.82 24.3822ZM72.8991 24.4874C74.6484 24.4807 76.1427 25.098 77.3783 26.3318C78.6214 27.573 79.2463 29.0719 79.253 30.8321C79.2598 32.5885 78.6464 34.0959 77.4129 35.3429C76.1868 36.5862 74.6973 37.2149 72.948 37.2217C71.1988 37.2284 69.7082 36.6111 68.4726 35.3773C67.237 34.1397 66.6195 32.6371 66.6128 30.8806C66.606 29.1204 67.2119 27.6168 68.438 26.3661C69.6641 25.1228 71.1499 24.4941 72.8991 24.4874ZM56.4307 24.6763L56.4501 29.7243L61.2541 29.7058L61.2347 24.6579L63.6814 24.6485L63.7294 37.1351L61.2826 37.1445L61.263 32.0252L56.459 32.0437L56.4787 37.1629L54.0319 37.1723L53.984 24.6857L56.4307 24.6763ZM116.045 24.446L116.054 26.7654L110.239 26.7877L110.25 29.5162L115.621 29.4956L115.63 31.815L110.259 31.8356L110.269 34.6354L116.084 34.6131L116.093 36.9325L107.832 36.9642L107.784 24.4777L116.045 24.446ZM36.3077 9.79315L36.3191 12.7468L11.8665 12.8407L11.9485 34.1884L33.4657 34.1057L33.4304 24.9106L22.5245 24.9525L22.5131 21.9988L36.3544 21.9457L36.4124 37.0482L9.0245 37.1533L8.91986 9.8983L36.3077 9.79315ZM72.908 26.8068C71.8078 26.811 70.8917 27.1936 70.1561 27.9583C69.4168 28.7231 69.055 29.6928 69.0595 30.8712C69.0641 32.0572 69.4333 33.0316 70.1785 33.7831C70.9199 34.5347 71.8388 34.9102 72.9391 34.906C74.0506 34.9017 74.9704 34.5191 75.7097 33.7619C76.4416 33.0047 76.8109 32.0275 76.8063 30.8415C76.8018 29.663 76.4251 28.6961 75.6762 27.9371C74.931 27.1781 74.0083 26.8026 72.908 26.8068ZM59.4041 9.40948C61.2466 9.4024 62.8083 10.087 64.0929 11.4595L62.5022 12.9443C61.6823 12.1255 60.655 11.7204 59.413 11.7251C58.3127 11.7294 57.3966 12.112 56.661 12.8692C55.9217 13.6264 55.5599 14.6036 55.5645 15.7896C55.569 16.968 55.9382 17.9387 56.6834 18.694C57.4248 19.453 58.3438 19.8323 59.4441 19.8281C60.2833 19.8249 61.0246 19.5893 61.6756 19.1214L61.6673 16.9634L59.3958 16.9721L59.3887 15.1181L64.1069 15.1L64.1259 20.0541C62.8519 21.4401 61.2955 22.1367 59.453 22.1437C57.7037 22.1505 56.2131 21.5332 54.9775 20.2956C53.7419 19.0618 53.1245 17.5592 53.1177 15.799C53.111 14.0425 53.7169 12.5352 54.9429 11.2882C56.169 10.0412 57.6548 9.41619 59.4041 9.40948ZM99.7645 9.23463C100.615 9.23137 101.462 9.41577 102.299 9.78787C103.144 10.1599 103.895 10.6562 104.558 11.288L102.967 12.7728C102.518 12.4067 101.987 12.1085 101.378 11.8857C100.77 11.6628 100.232 11.5523 99.7734 11.554L99.6317 11.5546C99.1095 11.5566 98.625 11.6673 98.1709 11.8905C97.7167 12.1099 97.4905 12.4673 97.4924 12.9552C97.4938 13.3343 97.6739 13.6151 98.0364 13.7901C98.3989 13.9688 98.9066 14.0983 99.5709 14.1783L100.563 14.2796C101.948 14.4394 103.027 14.8143 103.801 15.4006C104.58 15.9831 104.971 16.8861 104.976 18.0983C104.98 19.2618 104.532 20.1981 103.629 20.8921C102.729 21.5937 101.574 21.9509 100.168 21.9713L100.06 21.9717C98.8921 21.9762 97.8543 21.7437 96.9462 21.2781C96.0418 20.8086 95.3234 20.2109 94.7872 19.4736L96.3778 17.9887C96.6966 18.4416 97.1792 18.8301 97.8183 19.1579C98.4536 19.4895 99.204 19.6555 100.051 19.6523L100.159 19.6519C100.882 19.6378 101.452 19.4893 101.884 19.2174C102.316 18.9418 102.531 18.5694 102.529 18.1077C102.527 17.6086 102.328 17.249 101.939 17.0291C101.547 16.8129 100.983 16.6574 100.236 16.5627L99.2589 16.4614C96.4565 16.1381 95.0535 15.0026 95.046 13.0509C95.0416 11.91 95.4707 10.9963 96.3372 10.3099C97.2036 9.62353 98.2988 9.26653 99.6228 9.23518L99.7645 9.23463ZM70.2631 9.474L70.2906 16.6612C70.2948 17.7458 70.5477 18.533 71.042 19.0228C71.5436 19.5125 72.1563 19.7579 72.891 19.7551C73.6221 19.7523 74.2365 19.5022 74.7307 19.0086C75.2249 18.5151 75.468 17.726 75.4639 16.6413L75.4363 9.45414L77.883 9.44475L77.9108 16.6845C77.9174 18.3996 77.4339 19.7226 76.4565 20.6571C75.4792 21.5954 74.2949 22.0691 72.8999 22.0745C71.4901 22.0799 70.2985 21.6153 69.3214 20.6845C68.3444 19.7575 67.8507 18.4383 67.8441 16.7231L67.8163 9.4834L70.2631 9.474ZM91.2211 9.39354L91.23 11.713L85.4153 11.7353L85.4258 14.4638L90.7967 14.4432L90.8056 16.7626L85.4347 16.7832L85.4454 19.583L91.2602 19.5607L91.2691 21.8801L83.0076 21.9118L82.9596 9.42526L91.2211 9.39354ZM116.484 9.29505L116.493 11.6145L113.087 11.6275L113.126 21.7947L110.68 21.8041L110.641 11.6369L107.239 11.65L107.23 9.33057L116.484 9.29505Z" />

</symbol>

</svg>